# xmcd
#
# Track frame offsets:
#	150
#	11768
#	24917
#	38103
#	49647
#	61475
#	73857
#	83816
#
# Disc length: 1282 seconds
#
# Revision: 1
# Processed by: cddbd v1.5.2PL0 Copyright (c) Steve Scherf et al.
# Submitted via: audiograbber 1.83.01
#
DISCID=61050008
DTITLE=Hank Williams - Honky Tonk Smashes
DYEAR=2008
DGENRE=Country
TTITLE0=Kaw-Liga
TTITLE1=Jambalaya On The Bayou
TTITLE2=Hey Good Lookin
TTITLE3=Baby Were Really in Love
TTITLE4=Settin The Woods on Fire
TTITLE5=Move it on over
TTITLE6=Honky Tonk Blues
TTITLE7=Howlin at the moon
EXTD=Hank Williams 16 Top Five Hits 2 Disc Set \nDisc 1 Honky Tonk Smashes\nDis
EXTD=c 2 Heartbroken Country Hits\nDirect Source Special Products INC\nPO Box 2
EXTD=600 Pattsburgh NY USA\nEnjoy!\n\n
EXTT0=
EXTT1=
EXTT2=
EXTT3=
EXTT4=
EXTT5=
EXTT6=
EXTT7=
PLAYORDER=
